# xmcd CD database file
#
# Track frame offsets:
#	150
#	14546
#	27548
#	41854
#	62469
#	85782
#	102018
#	123220
#	144166
#	157181
#
# Disc length: 2285 seconds
#
# Revision: 1
# Processed by: cddbd v1.4PL0 Copyright (c) Steve Scherf et al.
# Submitted via: CDex 1.40Release
#
DISCID=7c08eb0a
DTITLE=John Denver - I Miti Musica
DYEAR=2002
DGENRE=Country
TTITLE0=Rhymes And Reasons
TTITLE1=Follow Me
TTITLE2=Take Me Home Country Roads
TTITLE3=Poems, Prayers and Promises
TTITLE4=Sunshine On My Shoulders
TTITLE5=Calypso
TTITLE6=Back Home Again
TTITLE7=Rocky Mountian High
TTITLE8=Love Again
TTITLE9=Starwood In Aspen
EXTD=YEAR: 2002 ID3G: 2
EXTT0=
EXTT1=
EXTT2=
EXTT3=
EXTT4=
EXTT5=
EXTT6=
EXTT7=
EXTT8=
EXTT9=
PLAYORDER=
